<svg width="261" height="52" viewBox="0 0 261 52" fill="none" xmlns="http://www.w3.org/2000/svg">
<path d="M0 26C0 11.6406 11.6406 0 26 0H235C249.359 0 261 11.6406 261 26C261 40.3594 249.359 52 235 52H26C11.6406 52 0 40.3594 0 26Z" fill="#F1CDB3"/>
<path d="M57.2104 27.2935C57.0776 27.3101 56.8978 27.3377 56.6709 27.3765C56.4495 27.4097 56.2697 27.4595 56.1313 27.5259C55.9653 27.6089 55.8464 27.7279 55.7744 27.8828C55.708 28.0322 55.6748 28.2093 55.6748 28.4141V29.3271C55.6748 29.9912 55.6776 30.4395 55.6831 30.6719C55.6942 30.9043 55.7052 31.0952 55.7163 31.2446C54.9803 31.5767 54.2471 31.8312 53.5166 32.0083C52.7861 32.1854 52.0695 32.2739 51.3667 32.2739C50.6141 32.2739 49.8892 32.1328 49.1919 31.8506C48.4946 31.5684 47.8859 31.1672 47.3657 30.647C46.84 30.1213 46.4222 29.4821 46.1123 28.7295C45.8024 27.9769 45.6475 27.1357 45.6475 26.2061C45.6475 25.3096 45.7941 24.4795 46.0874 23.7158C46.3862 22.9466 46.8068 22.2798 47.3491 21.7153C47.8748 21.1619 48.5002 20.7331 49.2251 20.4287C49.9556 20.1188 50.7358 19.9639 51.5659 19.9639C52.23 19.9639 52.8083 20.0441 53.3008 20.2046C53.7933 20.3651 54.2277 20.5588 54.604 20.7856L54.9443 20.2212H55.6084L55.6831 24.3384H55.0024C54.8862 23.8846 54.7424 23.4391 54.5708 23.002C54.3993 22.5592 54.1779 22.1636 53.9067 21.8149C53.6356 21.4663 53.3035 21.1896 52.9106 20.9849C52.5233 20.7746 52.0584 20.6694 51.5161 20.6694C50.924 20.6694 50.3955 20.7912 49.9307 21.0347C49.4658 21.2726 49.0618 21.6296 48.7188 22.1055C48.3812 22.5648 48.1211 23.1375 47.9385 23.8237C47.7559 24.5099 47.6646 25.2764 47.6646 26.123C47.6646 26.8701 47.7531 27.5757 47.9302 28.2397C48.1128 28.8983 48.3757 29.4683 48.7188 29.9497C49.0618 30.4422 49.4907 30.8296 50.0054 31.1118C50.52 31.394 51.1038 31.5352 51.7568 31.5352C52.2438 31.5352 52.6865 31.4604 53.085 31.311C53.4889 31.1616 53.7739 31.0039 53.9399 30.8379C53.9842 30.5501 54.0063 30.2596 54.0063 29.9663C54.0119 29.673 54.0146 29.424 54.0146 29.2192V28.5718C54.0146 28.3394 53.9814 28.1346 53.915 27.9575C53.8542 27.7749 53.7241 27.6421 53.5249 27.5591C53.3423 27.4761 53.0933 27.4152 52.7778 27.3765C52.4679 27.3322 52.2244 27.3045 52.0474 27.2935V26.6875H57.2104V27.2935ZM66.2241 30.0742C65.881 30.7272 65.4217 31.2474 64.8462 31.6348C64.2707 32.0221 63.6094 32.2158 62.8623 32.2158C62.2038 32.2158 61.6255 32.0996 61.1274 31.8672C60.6349 31.6348 60.2282 31.3193 59.9072 30.9209C59.5862 30.5225 59.3455 30.0576 59.185 29.5264C59.0301 28.9951 58.9526 28.4334 58.9526 27.8413C58.9526 27.3101 59.0356 26.7899 59.2016 26.2808C59.3732 25.7661 59.6222 25.304 59.9487 24.8945C60.2641 24.5016 60.6543 24.1862 61.1191 23.9482C61.5895 23.7048 62.1152 23.583 62.6963 23.583C63.2939 23.583 63.8058 23.6771 64.2319 23.8652C64.658 24.0534 65.0039 24.3107 65.2695 24.6372C65.5241 24.9471 65.7122 25.3123 65.834 25.7329C65.9612 26.1535 66.0249 26.61 66.0249 27.1025V27.6504H60.6045C60.6045 28.1872 60.6543 28.6742 60.7539 29.1113C60.859 29.5485 61.0223 29.9331 61.2436 30.2651C61.4595 30.5861 61.7417 30.8407 62.0903 31.0288C62.4389 31.2114 62.854 31.3027 63.3354 31.3027C63.8279 31.3027 64.2513 31.1893 64.6054 30.9624C64.9652 30.73 65.311 30.3149 65.643 29.7173L66.2241 30.0742ZM64.3896 26.9531C64.3896 26.6432 64.362 26.3112 64.3066 25.957C64.2568 25.6029 64.1738 25.3068 64.0576 25.0688C63.9303 24.8143 63.756 24.6068 63.5346 24.4463C63.3133 24.2858 63.0283 24.2056 62.6797 24.2056C62.0986 24.2056 61.6144 24.4491 61.227 24.936C60.8452 25.4175 60.6377 26.0898 60.6045 26.9531H64.3896ZM73.2456 31.6431C72.8859 31.7925 72.5455 31.917 72.2246 32.0166C71.9036 32.1217 71.5107 32.1743 71.0459 32.1743C70.3597 32.1743 69.8755 32.0028 69.5932 31.6597C69.3165 31.311 69.1782 30.8213 69.1782 30.1904V24.6455H67.7006V23.8486H69.2114V21.3003H70.7221V23.8486H73.0713V24.6455H70.7387V29.2192C70.7387 29.5623 70.7498 29.8501 70.7719 30.0825C70.7996 30.3094 70.8605 30.5086 70.9546 30.6802C71.0431 30.8407 71.1759 30.9624 71.353 31.0454C71.5301 31.1284 71.768 31.1699 72.0669 31.1699C72.2052 31.1699 72.4072 31.1589 72.6728 31.1367C72.944 31.109 73.1349 31.0758 73.2456 31.0371V31.6431ZM85.2631 31.6431C84.9034 31.7925 84.5631 31.917 84.2421 32.0166C83.9211 32.1217 83.5282 32.1743 83.0634 32.1743C82.3772 32.1743 81.893 32.0028 81.6108 31.6597C81.3341 31.311 81.1957 30.8213 81.1957 30.1904V24.6455H79.7182V23.8486H81.2289V21.3003H82.7397V23.8486H85.0888V24.6455H82.7563V29.2192C82.7563 29.5623 82.7673 29.8501 82.7895 30.0825C82.8171 30.3094 82.878 30.5086 82.9721 30.6802C83.0606 30.8407 83.1934 30.9624 83.3705 31.0454C83.5476 31.1284 83.7856 31.1699 84.0844 31.1699C84.2227 31.1699 84.4247 31.1589 84.6904 31.1367C84.9615 31.109 85.1524 31.0758 85.2631 31.0371V31.6431ZM95.0819 27.8247C95.0819 28.4002 94.9906 28.9674 94.808 29.5264C94.6254 30.0798 94.3653 30.5501 94.0277 30.9375C93.6459 31.3802 93.2032 31.7095 92.6996 31.9253C92.196 32.1411 91.6316 32.249 91.0062 32.249C90.4861 32.249 89.9908 32.1522 89.5204 31.9585C89.05 31.7593 88.6322 31.4715 88.267 31.0952C87.9073 30.7244 87.6195 30.2734 87.4037 29.7422C87.1934 29.2054 87.0883 28.605 87.0883 27.9409C87.0883 26.6626 87.459 25.6167 88.2006 24.8032C88.9477 23.9897 89.9244 23.583 91.1308 23.583C92.2763 23.583 93.2198 23.9704 93.9613 24.7451C94.7084 25.5143 95.0819 26.5409 95.0819 27.8247ZM93.3637 27.8413C93.3637 27.4263 93.3222 26.9891 93.2392 26.5298C93.1562 26.0649 93.0316 25.672 92.8656 25.3511C92.6885 25.008 92.4561 24.734 92.1684 24.5293C91.8806 24.319 91.5292 24.2139 91.1142 24.2139C90.6881 24.2139 90.3228 24.319 90.0185 24.5293C89.7196 24.7396 89.4761 25.0273 89.288 25.3926C89.1109 25.7301 88.9864 26.1147 88.9145 26.5464C88.8425 26.978 88.8065 27.3958 88.8065 27.7998C88.8065 28.3311 88.848 28.8236 88.9311 29.2773C89.0196 29.7256 89.1579 30.1268 89.3461 30.481C89.5342 30.8351 89.7694 31.1146 90.0517 31.3193C90.3394 31.5186 90.6936 31.6182 91.1142 31.6182C91.8059 31.6182 92.3537 31.2834 92.7577 30.6138C93.1617 29.9442 93.3637 29.02 93.3637 27.8413ZM111.084 32H108.61C108.179 31.3747 107.716 30.7051 107.224 29.9912C106.731 29.2773 106.22 28.5828 105.688 27.9077L105.008 28.5469V30.4893C105.008 30.6885 105.044 30.8545 105.116 30.9873C105.188 31.1146 105.304 31.2087 105.464 31.2695C105.597 31.3249 105.724 31.3664 105.846 31.394C105.968 31.4217 106.109 31.4411 106.269 31.4521V32H102.252V31.4521C102.379 31.4411 102.512 31.43 102.65 31.4189C102.789 31.4023 102.905 31.3802 102.999 31.3525C103.154 31.3027 103.27 31.217 103.348 31.0952C103.425 30.9679 103.464 30.8047 103.464 30.6055V21.0928C103.464 20.888 103.419 20.6971 103.331 20.52C103.248 20.3374 103.137 20.1991 102.999 20.105C102.883 20.0164 102.7 19.9583 102.451 19.9307C102.208 19.903 102.011 19.8836 101.862 19.8726V19.3413L104.891 19.1504L105.008 19.2749V27.9326C105.439 27.501 105.904 27.0389 106.402 26.5464C106.906 26.0483 107.329 25.6056 107.672 25.2183C107.716 25.1685 107.764 25.1048 107.813 25.0273C107.869 24.9443 107.896 24.8779 107.896 24.8281C107.896 24.6787 107.775 24.568 107.531 24.4961C107.293 24.4242 107.064 24.3743 106.842 24.3467V23.8154H110.445V24.3301C109.98 24.4684 109.568 24.6427 109.208 24.853C108.854 25.0578 108.583 25.2432 108.394 25.4092C108.262 25.5199 108.073 25.6997 107.83 25.9487C107.586 26.1978 107.246 26.5243 106.809 26.9282C107.263 27.4871 107.772 28.1567 108.336 28.937C108.906 29.7173 109.321 30.2817 109.581 30.6304C109.825 30.9569 110.043 31.1699 110.237 31.2695C110.431 31.3691 110.713 31.43 111.084 31.4521V32ZM121.583 32H117.574V31.4521C117.701 31.4411 117.84 31.43 117.989 31.4189C118.144 31.4079 118.271 31.3857 118.371 31.3525C118.526 31.3027 118.639 31.217 118.711 31.0952C118.789 30.9679 118.827 30.8047 118.827 30.6055V26.397C118.827 25.8159 118.689 25.3677 118.412 25.0522C118.141 24.7368 117.809 24.5791 117.416 24.5791C117.123 24.5791 116.855 24.6261 116.611 24.7202C116.368 24.8088 116.152 24.9194 115.964 25.0522C115.781 25.1795 115.634 25.3179 115.524 25.4673C115.419 25.6112 115.341 25.7274 115.291 25.8159V30.5225C115.291 30.7106 115.33 30.8656 115.408 30.9873C115.485 31.109 115.601 31.2031 115.756 31.2695C115.872 31.3249 115.997 31.3664 116.13 31.394C116.268 31.4217 116.409 31.4411 116.553 31.4521V32H112.544V31.4521C112.671 31.4411 112.801 31.43 112.934 31.4189C113.072 31.4079 113.191 31.3857 113.291 31.3525C113.446 31.3027 113.559 31.217 113.631 31.0952C113.709 30.9679 113.747 30.8047 113.747 30.6055V25.5503C113.747 25.3621 113.706 25.1906 113.623 25.0356C113.545 24.8752 113.435 24.7451 113.291 24.6455C113.186 24.5791 113.061 24.5321 112.917 24.5044C112.773 24.4712 112.618 24.4491 112.452 24.438V23.8984L115.175 23.7158L115.291 23.832V24.9858H115.333C115.466 24.853 115.632 24.6953 115.831 24.5127C116.03 24.3245 116.218 24.1724 116.395 24.0562C116.6 23.9233 116.844 23.8127 117.126 23.7241C117.408 23.6356 117.726 23.5913 118.08 23.5913C118.866 23.5913 119.447 23.8376 119.824 24.3301C120.205 24.8171 120.396 25.4673 120.396 26.2808V30.5391C120.396 30.7327 120.43 30.8905 120.496 31.0122C120.562 31.1284 120.676 31.2197 120.836 31.2861C120.969 31.3415 121.083 31.3802 121.177 31.4023C121.276 31.4245 121.412 31.4411 121.583 31.4521V32ZM131.585 27.8247C131.585 28.4002 131.493 28.9674 131.311 29.5264C131.128 30.0798 130.868 30.5501 130.531 30.9375C130.149 31.3802 129.706 31.7095 129.202 31.9253C128.699 32.1411 128.134 32.249 127.509 32.249C126.989 32.249 126.494 32.1522 126.023 31.9585C125.553 31.7593 125.135 31.4715 124.77 31.0952C124.41 30.7244 124.122 30.2734 123.907 29.7422C123.696 29.2054 123.591 28.605 123.591 27.9409C123.591 26.6626 123.962 25.6167 124.703 24.8032C125.451 23.9897 126.427 23.583 127.634 23.583C128.779 23.583 129.723 23.9704 130.464 24.7451C131.211 25.5143 131.585 26.5409 131.585 27.8247ZM129.867 27.8413C129.867 27.4263 129.825 26.9891 129.742 26.5298C129.659 26.0649 129.534 25.672 129.368 25.3511C129.191 25.008 128.959 24.734 128.671 24.5293C128.383 24.319 128.032 24.2139 127.617 24.2139C127.191 24.2139 126.826 24.319 126.521 24.5293C126.222 24.7396 125.979 25.0273 125.791 25.3926C125.614 25.7301 125.489 26.1147 125.417 26.5464C125.345 26.978 125.309 27.3958 125.309 27.7998C125.309 28.3311 125.351 28.8236 125.434 29.2773C125.522 29.7256 125.661 30.1268 125.849 30.481C126.037 30.8351 126.272 31.1146 126.555 31.3193C126.842 31.5186 127.196 31.6182 127.617 31.6182C128.309 31.6182 128.857 31.2834 129.261 30.6138C129.665 29.9442 129.867 29.02 129.867 27.8413ZM145.986 24.3467C145.753 24.3688 145.501 24.4657 145.23 24.6372C144.965 24.8088 144.771 25.0661 144.649 25.4092C144.373 26.2227 144.11 26.9946 143.861 27.7251C143.617 28.45 143.343 29.2663 143.039 30.1738C142.939 30.4616 142.837 30.7715 142.732 31.1035C142.632 31.4355 142.541 31.7537 142.458 32.0581H141.744L139.544 26.0317L137.328 32.0581H136.647C136.232 30.8296 135.825 29.6121 135.427 28.4058C135.034 27.1938 134.686 26.1396 134.381 25.2432C134.293 24.9831 134.124 24.7783 133.875 24.6289C133.626 24.4795 133.385 24.391 133.153 24.3633V23.8154H136.805V24.3965C136.622 24.402 136.423 24.4325 136.207 24.4878C135.997 24.5431 135.892 24.6344 135.892 24.7617C135.892 24.7839 135.9 24.8309 135.917 24.9028C135.939 24.9748 135.964 25.0522 135.992 25.1353C136.169 25.7163 136.368 26.3665 136.589 27.0859C136.816 27.7998 137.107 28.7295 137.461 29.875L139.553 23.9814H140.349L142.483 29.792C142.721 29.0505 142.956 28.3338 143.188 27.6421C143.426 26.9448 143.634 26.2918 143.811 25.6831C143.85 25.5392 143.886 25.4092 143.919 25.293C143.957 25.1712 143.977 25.0522 143.977 24.936C143.977 24.8364 143.933 24.7479 143.844 24.6704C143.755 24.5929 143.648 24.5293 143.52 24.4795C143.41 24.4352 143.288 24.402 143.155 24.3799C143.028 24.3577 142.934 24.3467 142.873 24.3467V23.8154H145.986V24.3467ZM157.522 31.6431C157.162 31.7925 156.822 31.917 156.501 32.0166C156.18 32.1217 155.787 32.1743 155.322 32.1743C154.636 32.1743 154.152 32.0028 153.869 31.6597C153.593 31.311 153.454 30.8213 153.454 30.1904V24.6455H151.977V23.8486H153.488V21.3003H154.998V23.8486H157.347V24.6455H155.015V29.2192C155.015 29.5623 155.026 29.8501 155.048 30.0825C155.076 30.3094 155.137 30.5086 155.231 30.6802C155.319 30.8407 155.452 30.9624 155.629 31.0454C155.806 31.1284 156.044 31.1699 156.343 31.1699C156.481 31.1699 156.683 31.1589 156.949 31.1367C157.22 31.109 157.411 31.0758 157.522 31.0371V31.6431ZM168.254 32H164.236V31.4521C164.363 31.4411 164.504 31.43 164.659 31.4189C164.814 31.4079 164.942 31.3857 165.041 31.3525C165.196 31.3027 165.31 31.217 165.382 31.0952C165.459 30.9679 165.498 30.8047 165.498 30.6055V26.397C165.498 25.8159 165.359 25.3677 165.083 25.0522C164.812 24.7368 164.48 24.5791 164.087 24.5791C163.799 24.5791 163.531 24.6261 163.281 24.7202C163.038 24.8088 162.819 24.9194 162.626 25.0522C162.438 25.1906 162.294 25.3289 162.194 25.4673C162.094 25.6056 162.017 25.7218 161.962 25.8159V30.5225C161.962 30.7106 161.998 30.8656 162.07 30.9873C162.147 31.109 162.263 31.2031 162.418 31.2695C162.54 31.3249 162.664 31.3664 162.792 31.394C162.925 31.4217 163.068 31.4411 163.223 31.4521V32H159.206V31.4521C159.333 31.4411 159.466 31.43 159.604 31.4189C159.743 31.4023 159.859 31.3802 159.953 31.3525C160.108 31.3027 160.224 31.217 160.302 31.0952C160.379 30.9679 160.418 30.8047 160.418 30.6055V21.0762C160.418 20.888 160.373 20.6999 160.285 20.5117C160.202 20.3236 160.091 20.1825 159.953 20.0884C159.853 20.0164 159.676 19.9666 159.422 19.939C159.173 19.9058 158.971 19.8836 158.816 19.8726V19.3413L161.845 19.1504L161.962 19.2749V24.9858H161.995C162.177 24.8032 162.343 24.6427 162.493 24.5044C162.642 24.3605 162.839 24.2111 163.082 24.0562C163.293 23.9233 163.539 23.8127 163.821 23.7241C164.109 23.6356 164.43 23.5913 164.784 23.5913C165.514 23.5913 166.076 23.8237 166.469 24.2886C166.862 24.7479 167.058 25.4119 167.058 26.2808V30.5391C167.058 30.7327 167.092 30.8905 167.158 31.0122C167.23 31.1284 167.346 31.2197 167.507 31.2861C167.634 31.3359 167.747 31.3747 167.847 31.4023C167.952 31.4245 168.088 31.4411 168.254 31.4521V32ZM177.55 30.0742C177.206 30.7272 176.747 31.2474 176.172 31.6348C175.596 32.0221 174.935 32.2158 174.188 32.2158C173.529 32.2158 172.951 32.0996 172.453 31.8672C171.96 31.6348 171.554 31.3193 171.233 30.9209C170.912 30.5225 170.671 30.0576 170.51 29.5264C170.356 28.9951 170.278 28.4334 170.278 27.8413C170.278 27.3101 170.361 26.7899 170.527 26.2808C170.699 25.7661 170.948 25.304 171.274 24.8945C171.59 24.5016 171.98 24.1862 172.445 23.9482C172.915 23.7048 173.441 23.583 174.022 23.583C174.619 23.583 175.131 23.6771 175.557 23.8652C175.983 24.0534 176.329 24.3107 176.595 24.6372C176.849 24.9471 177.038 25.3123 177.159 25.7329C177.287 26.1535 177.35 26.61 177.35 27.1025V27.6504H171.93C171.93 28.1872 171.98 28.6742 172.079 29.1113C172.184 29.5485 172.348 29.9331 172.569 30.2651C172.785 30.5861 173.067 30.8407 173.416 31.0288C173.764 31.2114 174.179 31.3027 174.661 31.3027C175.153 31.3027 175.577 31.1893 175.931 30.9624C176.291 30.73 176.636 30.3149 176.968 29.7173L177.55 30.0742ZM175.715 26.9531C175.715 26.6432 175.687 26.3112 175.632 25.957C175.582 25.6029 175.499 25.3068 175.383 25.0688C175.256 24.8143 175.081 24.6068 174.86 24.4463C174.639 24.2858 174.354 24.2056 174.005 24.2056C173.424 24.2056 172.94 24.4491 172.552 24.936C172.171 25.4175 171.963 26.0898 171.93 26.9531H175.715ZM190.904 24.8696C190.904 25.1519 190.834 25.4036 190.696 25.625C190.558 25.8408 190.345 25.9487 190.057 25.9487C189.747 25.9487 189.509 25.8685 189.343 25.708C189.182 25.5475 189.102 25.3704 189.102 25.1768C189.102 25.055 189.111 24.9443 189.127 24.8447C189.149 24.7451 189.169 24.6455 189.185 24.5459C188.925 24.5459 188.621 24.651 188.272 24.8613C187.924 25.0716 187.627 25.3704 187.384 25.7578V30.5225C187.384 30.7161 187.42 30.8739 187.492 30.9956C187.569 31.1174 187.688 31.2087 187.849 31.2695C187.987 31.3249 188.164 31.3664 188.38 31.394C188.601 31.4217 188.792 31.4411 188.953 31.4521V32H184.636V31.4521C184.764 31.4411 184.894 31.43 185.027 31.4189C185.165 31.4079 185.284 31.3857 185.383 31.3525C185.538 31.3027 185.652 31.217 185.724 31.0952C185.801 30.9679 185.84 30.8047 185.84 30.6055V25.5503C185.84 25.3787 185.799 25.21 185.716 25.0439C185.638 24.8779 185.527 24.7451 185.383 24.6455C185.278 24.5791 185.154 24.5321 185.01 24.5044C184.866 24.4712 184.711 24.4491 184.545 24.438V23.8984L187.268 23.7158L187.384 23.832V24.9858H187.425C187.769 24.5376 188.15 24.1973 188.571 23.9648C188.992 23.7324 189.376 23.6162 189.725 23.6162C190.073 23.6162 190.356 23.7297 190.571 23.9565C190.793 24.1834 190.904 24.4878 190.904 24.8696ZM199.901 30.0742C199.557 30.7272 199.098 31.2474 198.523 31.6348C197.947 32.0221 197.286 32.2158 196.539 32.2158C195.88 32.2158 195.302 32.0996 194.804 31.8672C194.311 31.6348 193.905 31.3193 193.584 30.9209C193.263 30.5225 193.022 30.0576 192.861 29.5264C192.707 28.9951 192.629 28.4334 192.629 27.8413C192.629 27.3101 192.712 26.7899 192.878 26.2808C193.05 25.7661 193.299 25.304 193.625 24.8945C193.941 24.5016 194.331 24.1862 194.796 23.9482C195.266 23.7048 195.792 23.583 196.373 23.583C196.97 23.583 197.482 23.6771 197.908 23.8652C198.334 24.0534 198.68 24.3107 198.946 24.6372C199.201 24.9471 199.389 25.3123 199.51 25.7329C199.638 26.1535 199.701 26.61 199.701 27.1025V27.6504H194.281C194.281 28.1872 194.331 28.6742 194.43 29.1113C194.535 29.5485 194.699 29.9331 194.92 30.2651C195.136 30.5861 195.418 30.8407 195.767 31.0288C196.115 31.2114 196.53 31.3027 197.012 31.3027C197.504 31.3027 197.928 31.1893 198.282 30.9624C198.642 30.73 198.987 30.3149 199.319 29.7173L199.901 30.0742ZM198.066 26.9531C198.066 26.6432 198.038 26.3112 197.983 25.957C197.933 25.6029 197.85 25.3068 197.734 25.0688C197.607 24.8143 197.432 24.6068 197.211 24.4463C196.99 24.2858 196.705 24.2056 196.356 24.2056C195.775 24.2056 195.291 24.4491 194.903 24.936C194.522 25.4175 194.314 26.0898 194.281 26.9531H198.066ZM207.271 27.9907C207.498 28.1899 207.672 28.4196 207.794 28.6797C207.915 28.9398 207.976 29.258 207.976 29.6343C207.976 30.3924 207.691 31.0122 207.121 31.4937C206.557 31.9751 205.824 32.2158 204.922 32.2158C204.446 32.2158 204.006 32.13 203.602 31.9585C203.203 31.7869 202.918 31.6292 202.747 31.4854L202.581 32.0249H201.958L201.875 29.1777H202.448C202.492 29.3936 202.586 29.6453 202.73 29.9331C202.874 30.2209 203.048 30.481 203.253 30.7134C203.469 30.9569 203.726 31.1616 204.025 31.3276C204.329 31.4937 204.67 31.5767 205.046 31.5767C205.577 31.5767 205.987 31.4577 206.275 31.2197C206.562 30.9762 206.706 30.6304 206.706 30.1821C206.706 29.9497 206.659 29.7505 206.565 29.5845C206.477 29.4129 206.344 29.2635 206.167 29.1362C205.984 29.009 205.76 28.8955 205.494 28.7959C205.229 28.6908 204.933 28.5884 204.606 28.4888C204.346 28.4113 204.055 28.3062 203.735 28.1733C203.419 28.035 203.148 27.8745 202.921 27.6919C202.678 27.4982 202.478 27.2603 202.323 26.978C202.168 26.6958 202.091 26.3638 202.091 25.9819C202.091 25.3123 202.34 24.7451 202.838 24.2803C203.336 23.8154 204.003 23.583 204.839 23.583C205.159 23.583 205.486 23.6245 205.818 23.7075C206.156 23.7905 206.429 23.8901 206.64 24.0063L206.831 23.5747H207.428L207.553 26.2061H206.98C206.864 25.6195 206.612 25.1436 206.225 24.7783C205.843 24.4076 205.375 24.2222 204.822 24.2222C204.368 24.2222 204.011 24.3356 203.751 24.5625C203.491 24.7894 203.361 25.0633 203.361 25.3843C203.361 25.6333 203.402 25.8408 203.485 26.0068C203.574 26.1729 203.704 26.314 203.876 26.4302C204.042 26.5409 204.249 26.646 204.498 26.7456C204.753 26.8397 205.065 26.9476 205.436 27.0693C205.801 27.1855 206.145 27.3211 206.465 27.4761C206.792 27.631 207.06 27.8026 207.271 27.9907ZM215.297 31.6431C214.937 31.7925 214.596 31.917 214.276 32.0166C213.955 32.1217 213.562 32.1743 213.097 32.1743C212.411 32.1743 211.926 32.0028 211.644 31.6597C211.367 31.311 211.229 30.8213 211.229 30.1904V24.6455H209.752V23.8486H211.262V21.3003H212.773V23.8486H215.122V24.6455H212.79V29.2192C212.79 29.5623 212.801 29.8501 212.823 30.0825C212.851 30.3094 212.911 30.5086 213.005 30.6802C213.094 30.8407 213.227 30.9624 213.404 31.0454C213.581 31.1284 213.819 31.1699 214.118 31.1699C214.256 31.1699 214.458 31.1589 214.724 31.1367C214.995 31.109 215.186 31.0758 215.297 31.0371V31.6431Z" fill="#292929"/>
</svg>
